<?xml version="1.0" encoding="utf-8"?>
<!-- Generator: Adobe Illustrator 25.0.1, SVG Export Plug-In . SVG Version: 6.00 Build 0)  -->
<svg version="1.0" id="katman_1" xmlns="http://www.w3.org/2000/svg" xmlns:xlink="http://www.w3.org/1999/xlink" x="0px" y="0px"
	 viewBox="0 0 560 400" style="enable-background:new 0 0 560 400;" xml:space="preserve">
<style type="text/css">
	.st0{fill:#082313;}
	.st1{fill:#006CB8;}
	.st2{fill:#ACC42A;}
	.st3{fill:#ED1B2F;}
</style>
<g>
	<g transform="matrix(.46337544 0 0 .46337544 152.158687 170.171349)">
		<path class="st0" d="M149.4,53.2h29.3c8.2,0,14.7,2,19.7,6c5,4,8.6,9.2,8.6,15.6c0,4.3-0.1,12.4-2.6,16.3
			c-2.4,3.8-6.1,6.6-11.1,8.5c-5,1.9-10.3,2.9-13.9,2.9l-12.6,0.2v24.6h-17.5L149.4,53.2z M166.6,69v19.2l10.7,0
			c3.2,0,5.9-1,8.2-2.9c2.3-1.9,3.4-4.2,3.4-6.8c0-3-1.3-5.3-3.9-7c-2.6-1.7-5.2-2.5-10-2.5L166.6,69z"/>
		<path class="st0" d="M217,53.2h47.5v14.7h-30.1v13.5h29.2v16h-29.2v13.5h30.1v16.5H217L217,53.2z"/>
		<path class="st0" d="M280.9,53.2h30.4c8,0,13,2,17.6,5.9c4.6,3.9,6.2,10.1,7,15.9c0.5,4,0.2,7.9-1.9,12c-2.1,4.1-8.4,8.6-14.3,10
			l23.2,30.5h-21.1L300,97.8H298v29.5h-17.2L280.9,53.2z M298.1,67.6v19.1h6.2c8.9,0,13.4-4.5,13.4-11.3c0-7.6-8.2-7.8-13.2-7.9
			H298.1z"/>
		<path class="st0" d="M343.6,53.2h56.9v16.1h-19.4v58.1h-18.2V69.3h-19.3V53.2z"/>
		<path class="st0" d="M421.9,53.2h18.2l25.1,74.1h-18.4L442,114h-22.5l-5.6,13.4h-17.2L421.9,53.2z M430.8,77.1l-8.2,22.9h15.2
			L430.8,77.1z"/>
		<path class="st0" d="M483.1,53.2h17L514,94.4l15.1-41.2H546l9.8,74.1h-16.7l-4.9-42l-16.7,42h-6.9l-15.8-42.8l-7.2,42.8l-15.5,0
			L483.1,53.2z"/>
		<path class="st0" d="M567.2,53.2h17.6v74.1h-17.6V53.2z"/>
		<path class="st0" d="M650.9,53.6H667v73.7h-17.8l-31-43.9v43.9h-17.4V53.6h16.6l33.5,45.6V53.6z"/>
		<path class="st0" d="M703.1,53.2h18.2l25.1,74.1h-18.4l-4.8-13.4h-22.5l-5.7,13.4h-17.2L703.1,53.2z M712,77.1l-8.2,22.9h15.2
			L712,77.1z"/>
	</g>
	<g transform="matrix(.12614255 0 0 .12614153 249.420316 277.868251)">
		<path class="st1" d="M-1485.8-217.8c0,0,215.6-343,250.8-399.8c35.1-56.9,65.4-62.2,162.5-62.2h213.9
			c-12.6,10.6-34.2,32.7-50.3,58.6l-217.6,350.1c-21.8,39.1-67.8,53.3-123,53.3H-1485.8z"/>
		<path class="st2" d="M-634-679.8c-97.1,0-127.5,5.3-164.5,62.2c-37,56.9-136.3,210.1-136.3,210.1h248.8
			c43.4,0,85.7-19.1,103.9-50.6l147-221.7L-634-679.8z"/>
		<path class="st3" d="M-736-1016.9c97.1,0,127.5,5.3,164.5,62.2c37,56.9,136.3,210.1,136.3,210.1h-248.8
			c-43.4,0-85.7-19.1-103.9-50.6l-147-221.7L-736-1016.9z"/>
	</g>
</g>
</svg>
